<svg xmlns="http://www.w3.org/2000/svg" width="35" height="35" viewBox="0 0 35 35" fill="none">
  <path fill-rule="evenodd" clip-rule="evenodd" d="M17.5108 35C27.1719 35 35 27.1671 35 17.5C35 7.83287 27.1719 0 17.5108 0C7.84972 0 0 7.83287 0 17.5C0 27.1671 7.84972 35 17.5108 35Z" fill="#EB0046"/>
  <path fill-rule="evenodd" clip-rule="evenodd" d="M19.287 10.5385C19.287 9.55126 18.4857 8.75 17.4985 8.75C16.51 8.75 15.71 9.55126 15.71 10.5385C15.71 11.5258 16.51 12.327 17.4985 12.327C18.4857 12.327 19.287 11.5258 19.287 10.5385ZM19.287 24.7364V15.6287C19.287 14.7933 18.4857 14.1153 17.4985 14.1153C16.5112 14.1153 15.71 14.7933 15.71 15.6287V24.7364C15.71 25.5718 16.5112 26.2498 17.4985 26.2498C18.4857 26.2498 19.287 25.5718 19.287 24.7364Z" fill="white"/>
</svg>
