<svg xmlns="http://www.w3.org/2000/svg" width="14" height="14" viewBox="0 0 17 17" fill="none">
  <path d="M15.2999 0.607143L14.1666 0L13.0332 0.607143L11.8999 0L10.7666 0.607143L9.63323 0L8.49989 0.607143L7.36655 0L6.23321 0.607143L4.5332 0V9.71429V9.71618H12.4666V14.875C12.4666 16.0487 13.6378 17 14.7333 17H15.1583C16.2537 17 16.9999 16.0487 16.9999 14.875V0L15.2999 0.607143ZM9.08427 7.89286L9.06656 6.67857H14.7155L14.7333 7.89286H9.08427ZM6.81759 4.85714L6.79988 3.64286H14.7155L14.7333 4.85714H6.81759Z" fill="#B7BABC"/>
  <path d="M11.3334 14.8751V10.9287H0V12.143C0 14.0612 0.204709 14.8607 0.512127 15.4682C1.03382 16.4992 1.97838 17.0001 3.40002 17.0001H12.4667C12.4667 17.0001 11.3334 16.2412 11.3334 14.8751Z" fill="#B7BABC"/>
</svg>
