<svg xmlns="http://www.w3.org/2000/svg" width="14" height="14" viewBox="0 0 14 14" fill="none">
  <path d="M12.6001 0.5L11.6668 0L10.7334 0.5L9.80009 0L8.86676 0.5L7.93342 0L7.00008 0.5L6.06674 0L5.1334 0.5L3.7334 0V8V8.00156H10.2668V12.25C10.2668 13.2166 11.2313 14 12.1334 14H12.4834C13.3856 14 14.0001 13.2166 14.0001 12.25V0L12.6001 0.5ZM7.48133 6.5L7.46675 5.5H12.1189L12.1334 6.5H7.48133ZM5.61466 4L5.60007 3H12.1189L12.1334 4H5.61466Z" fill="black"/>
  <path d="M9.33338 12.25V9H0V10C0 11.5797 0.168584 12.2381 0.421752 12.7384C0.851379 13.5875 1.62926 14 2.80001 14H10.2667C10.2667 14 9.33338 13.375 9.33338 12.25Z" fill="black"/>
</svg>
