<svg xmlns="http://www.w3.org/2000/svg" width="12" height="12" viewBox="0 0 10 10" fill="none">
  <path fill-rule="evenodd" clip-rule="evenodd"
    d="M5 9.23636C2.66425 9.23636 0.763973 7.3361 0.763973 5.00033C0.763973 2.66458 2.66425 0.764323 5 0.764323C7.33575 0.764323 9.23603 2.66458 9.23603 5.00033C9.23603 7.3361 7.33575 9.23636 5 9.23636ZM5 0C2.24299 0 0 2.24299 0 5C0 7.75701 2.24299 10 5 10C7.75701 10 10 7.75701 10 5C10 2.24299 7.75701 0 5 0ZM5 2.22266C5.30667 2.22266 5.55556 2.47155 5.55556 2.77821C5.55556 3.08488 5.30667 3.33377 5 3.33377C4.69297 3.33377 4.44445 3.08488 4.44445 2.77821C4.44445 2.47155 4.69297 2.22266 5 2.22266ZM5.55556 7.18847V4.35941C5.55556 4.09992 5.30667 3.88932 5 3.88932C4.69334 3.88932 4.44445 4.09992 4.44445 4.35941V7.18847C4.44445 7.44796 4.69334 7.65855 5 7.65855C5.30667 7.65855 5.55556 7.44796 5.55556 7.18847Z"
    fill="#373BD3" />
</svg>
