<svg xmlns="http://www.w3.org/2000/svg" width="41" height="39" viewBox="0 0 41 39" fill="none">
  <path fill-rule="evenodd" clip-rule="evenodd" d="M20.5127 39C31.8299 39 41 30.2719 41 19.5C41 8.72806 31.8299 0 20.5127 0C9.19539 0 0 8.72806 0 19.5C0 30.2719 9.19539 39 20.5127 39Z" fill="#EB0046"/>
  <path fill-rule="evenodd" clip-rule="evenodd" d="M22.287 10.8396C22.287 9.82415 21.4857 9 20.4985 9C19.51 9 18.71 9.82415 18.71 10.8396C18.71 11.8551 19.51 12.6792 20.4985 12.6792C21.4857 12.6792 22.287 11.8551 22.287 10.8396ZM22.287 25.4433V16.0754C22.287 15.2162 21.4857 14.5188 20.4985 14.5188C19.5112 14.5188 18.71 15.2162 18.71 16.0754V25.4433C18.71 26.3026 19.5112 26.9999 20.4985 26.9999C21.4857 26.9999 22.287 26.3026 22.287 25.4433Z" fill="white"/>
</svg>
