<svg width="153" height="63" viewBox="0 0 153 63" fill="none" xmlns="http://www.w3.org/2000/svg">
  <path d="M2.32481 21.5321C2.66923 21.5321 3.03213 21.626 3.41303 21.8108C3.79491 21.9957 4.08435 22.2326 4.28088 22.5298L12.3182 34.9011L20.5983 22.5298C21.0658 21.8673 21.6691 21.5321 22.4075 21.5321C22.9971 21.5321 23.5254 21.7418 23.9948 22.1616C24.4614 22.5795 24.6953 23.1209 24.6953 23.7874V45.1587C24.6953 45.7998 24.4857 46.3359 24.0683 46.7655C23.6499 47.195 23.0954 47.4105 22.4075 47.4105C21.7177 47.4105 21.1578 47.195 20.7263 46.7655C20.2958 46.3359 20.0812 45.8003 20.0812 45.1587V30.2972L13.9888 39.5853C13.7684 39.8567 13.4906 40.0897 13.1589 40.2858C12.8266 40.4838 12.4875 40.5708 12.1446 40.5455C11.824 40.5708 11.4985 40.4838 11.1658 40.2858C10.8331 40.0897 10.5563 39.8562 10.3359 39.5853L4.24391 29.9543V45.1587C4.24391 45.7998 4.04787 46.3359 3.65383 46.7655C3.25882 47.195 2.74268 47.4105 2.10298 47.4105C1.48809 47.4105 0.981684 47.195 0.589594 46.7655C0.197018 46.3359 0 45.8003 0 45.1587V23.7874C0 23.17 0.225719 22.6393 0.680563 22.1981C1.13735 21.7554 1.68511 21.5321 2.32481 21.5321Z" fill="#395AE8"/>
  <path d="M53.6373 34.4905C53.6373 36.3376 53.3279 38.0592 52.714 39.6602C52.0981 41.2582 51.2308 42.6685 50.1105 43.8837C48.9911 45.1037 47.6616 46.0586 46.1249 46.7465C44.5857 47.4358 42.9069 47.7802 41.0856 47.7802C39.2643 47.7802 37.5898 47.4358 36.0648 46.7465C34.5387 46.0586 33.2156 45.1037 32.0967 43.8837C30.9764 42.6685 30.108 41.2587 29.4936 39.6602C28.8778 38.0592 28.5718 36.3376 28.5718 34.4905C28.5718 32.6434 28.8778 30.9208 29.4936 29.3209C30.108 27.7219 30.9764 26.3135 32.0967 25.094C33.2156 23.8778 34.5392 22.9239 36.0648 22.2326C37.5903 21.5452 39.2643 21.2023 41.0856 21.2023C42.9069 21.2023 44.5857 21.5452 46.1249 22.2326C47.6616 22.9239 48.9916 23.8778 50.1105 25.094C51.2308 26.314 52.0981 27.7219 52.714 29.3209C53.3279 30.9208 53.6373 32.6434 53.6373 34.4905ZM48.8369 34.4905C48.8369 32.8409 48.5046 31.3465 47.8401 30.0039C47.1761 28.6637 46.2659 27.6002 45.1091 26.8122C43.9523 26.0241 42.6106 25.6315 41.0856 25.6315C39.5586 25.6315 38.2174 26.0246 37.0615 26.8122C35.9057 27.5998 34.9994 28.6573 34.3481 29.9864C33.6962 31.3154 33.3703 32.8176 33.3703 34.49C33.3703 36.1387 33.6962 37.6341 34.3481 38.9757C34.9994 40.3164 35.9052 41.3813 37.0615 42.1674C38.2179 42.9569 39.5591 43.3505 41.0856 43.3505C42.6111 43.3505 43.9528 42.9569 45.1091 42.1674C46.2659 41.3818 47.1761 40.3164 47.8401 38.9757C48.5046 37.6345 48.8369 36.1387 48.8369 34.4905Z" fill="#395AE8"/>
  <path d="M114.985 21.5692H127.351C127.991 21.5692 128.526 21.7716 128.957 22.1783C129.388 22.5845 129.604 23.1084 129.604 23.7471C129.604 24.363 129.388 24.8616 128.957 25.2425C128.526 25.6239 127.991 25.8146 127.351 25.8146H117.347V32.09H125.69C126.33 32.09 126.865 32.2943 127.297 32.7C127.727 33.1047 127.944 33.6287 127.944 34.2708C127.944 34.8847 127.727 35.3814 127.297 35.7652C126.865 36.1461 126.33 36.3373 125.69 36.3373H117.347V43.1648H127.351C127.991 43.1648 128.526 43.3803 128.957 43.8118C129.388 44.2433 129.604 44.7405 129.604 45.3067C129.604 45.9231 129.388 46.4256 128.957 46.8186C128.526 47.2132 127.991 47.4097 127.351 47.4097H114.985C114.344 47.4097 113.809 47.1942 113.378 46.7646C112.946 46.3351 112.732 45.7995 112.732 45.1579V23.8211C112.732 23.1818 112.946 22.6462 113.378 22.2162C113.809 21.7847 114.343 21.5692 114.985 21.5692Z" fill="#4E2CD1"/>
  <path d="M139.864 25.8146H134.07C133.43 25.8146 132.894 25.6185 132.463 25.2255C132.033 24.8305 131.817 24.3143 131.817 23.6732C131.817 23.0349 132.032 22.5237 132.463 22.1432C132.894 21.7604 133.43 21.5692 134.07 21.5692H150.461C151.099 21.5692 151.635 21.7657 152.065 22.1608C152.495 22.5538 152.711 23.0719 152.711 23.7116C152.711 24.3494 152.495 24.8616 152.065 25.2425C151.635 25.6239 151.099 25.8146 150.461 25.8146H144.664V45.1579C144.664 45.799 144.437 46.3351 143.981 46.7646C143.527 47.1942 142.941 47.4097 142.228 47.4097C141.538 47.4097 140.972 47.1942 140.529 46.7646C140.087 46.3351 139.864 45.7995 139.864 45.1579V25.8146Z" fill="#4E2CD1"/>
  <path d="M106.317 47.1968C105.778 47.1968 105.246 46.9983 104.832 46.6189L85.4636 28.8289L85.7633 44.962C85.7793 45.8352 85.2763 46.6359 84.4824 46.9983C83.6851 47.3646 82.7535 47.2202 82.1041 46.6364L62.0778 28.664V45.0029C62.0778 46.2142 61.0947 47.1968 59.8829 47.1968C58.6711 47.1968 57.689 46.2142 57.689 45.0029V23.7478C57.689 22.8824 58.1988 22.0972 58.9888 21.745C59.7793 21.3914 60.7036 21.5358 61.3496 22.1138L81.2825 40.0015L80.9799 23.7896C80.9638 22.9111 81.4736 22.1084 82.2748 21.7484C83.0756 21.386 84.0135 21.5392 84.6595 22.1313L104.187 40.0667L104.4 23.7186C104.417 22.5093 105.412 21.6059 106.625 21.5558C107.835 21.5709 108.804 22.5647 108.789 23.778L108.511 45.0321C108.5 45.897 107.98 46.6734 107.186 47.0183C106.906 47.1389 106.61 47.1968 106.317 47.1968Z" fill="url(#paint0_linear_1_437)"/>
  <path d="M78.3496 59.9695V53.4937H80.0294C80.4531 53.4937 80.8189 53.5666 81.1283 53.713C81.4377 53.8595 81.676 54.0691 81.8449 54.343C82.0132 54.614 82.0978 54.9404 82.0978 55.3237C82.0978 55.7027 82.0132 56.0364 81.8449 56.3234C81.676 56.6085 81.4377 56.8318 81.1283 56.9899C80.8189 57.148 80.4531 57.2268 80.0294 57.2268H78.9455V59.9695H78.3496ZM78.946 56.7243H79.8873C80.2118 56.7243 80.4944 56.6683 80.7343 56.5559C80.9731 56.4445 81.1575 56.2825 81.2893 56.0748C81.4197 55.8671 81.4849 55.62 81.4849 55.3388C81.4849 55.0518 81.4192 54.8056 81.2893 54.6033C81.1575 54.4009 80.9736 54.2472 80.7343 54.1397C80.4944 54.0351 80.2118 53.9811 79.8873 53.9811H78.946V56.7243Z" fill="#2B2F3A"/>
  <path d="M84.912 60.0955C84.5349 60.0955 84.1954 60.0026 83.8928 59.8182C83.5907 59.6348 83.3504 59.3814 83.1743 59.0598C82.9977 58.7378 82.9102 58.37 82.9102 57.9555C82.9102 57.5469 82.9958 57.183 83.1709 56.8639C83.3441 56.5438 83.5824 56.2899 83.8845 56.1031C84.1866 55.9177 84.5291 55.8248 84.9115 55.8248C85.2753 55.8248 85.6047 55.9104 85.8985 56.0802C86.1957 56.2495 86.421 56.4859 86.5757 56.7871V55.9513H87.1477V59.969H86.5757V59.124C86.402 59.4251 86.1709 59.6645 85.8805 59.8367C85.5911 60.0094 85.2676 60.0955 84.912 60.0955ZM85.0525 59.5969C85.3532 59.5969 85.6198 59.5273 85.8518 59.3867C86.0824 59.2461 86.2653 59.054 86.3981 58.8054C86.5324 58.5592 86.599 58.2771 86.599 57.9599C86.599 57.6427 86.5324 57.3586 86.401 57.1125C86.2687 56.8663 86.0863 56.6737 85.8542 56.5346C85.6202 56.394 85.3537 56.3225 85.053 56.3225C84.7524 56.3225 84.4848 56.3935 84.2523 56.5346C84.0203 56.6732 83.8369 56.8663 83.7031 57.1125C83.5703 57.3586 83.5017 57.6427 83.5017 57.9599C83.5017 58.2771 83.5703 58.5592 83.7031 58.8054C83.8369 59.0545 84.0203 59.2461 84.2523 59.3867C84.4844 59.5273 84.7519 59.5969 85.0525 59.5969Z" fill="#2B2F3A"/>
  <path d="M89.1313 62.0106L90.1193 59.8711L88.2075 55.9517H88.8555L90.4457 59.2839L91.8891 55.9517H92.5371L89.7778 62.0106H89.1313Z" fill="#2B2F3A"/>
  <path d="M93.6406 59.9695V55.9518H94.2142V56.5005C94.3742 56.2787 94.5639 56.1104 94.7867 55.997C95.009 55.8827 95.2586 55.8253 95.532 55.8253C95.8623 55.8253 96.1503 55.9012 96.3935 56.0535C96.6397 56.2038 96.8075 56.4115 96.9033 56.6737C97.0561 56.4164 97.2536 56.2116 97.4929 56.0569C97.7323 55.9031 98.0169 55.8248 98.3472 55.8248C98.6322 55.8248 98.8852 55.8837 99.108 55.999C99.3303 56.1162 99.5049 56.286 99.6324 56.5098C99.7594 56.7331 99.8221 57.0064 99.8221 57.329V59.969H99.2486V57.49C99.2486 57.1227 99.1542 56.8328 98.963 56.6173C98.7709 56.4037 98.516 56.2962 98.1973 56.2962C97.9784 56.2962 97.779 56.3458 97.6014 56.4426C97.4224 56.5375 97.2813 56.664 97.1772 56.8162C97.0717 56.97 97.0191 57.1261 97.0191 57.2905V59.9695H96.447V57.4311C96.447 57.0823 96.3522 56.807 96.1625 56.6027C95.9718 56.3984 95.7222 56.2967 95.4114 56.2967C95.1915 56.2967 94.9901 56.3424 94.8086 56.4373C94.6262 56.5292 94.4827 56.6494 94.3747 56.7953C94.2677 56.9417 94.2137 57.0916 94.2137 57.2458V59.9695H93.6406Z" fill="#2B2F3A"/>
  <path d="M103.331 60.0955C102.91 60.0955 102.534 60.0026 102.203 59.8163C101.872 59.6319 101.612 59.3775 101.423 59.0579C101.235 58.7368 101.141 58.3758 101.141 57.9765C101.141 57.6744 101.195 57.3932 101.304 57.1334C101.412 56.8736 101.563 56.6455 101.758 56.4499C101.951 56.2534 102.175 56.0992 102.433 55.9893C102.69 55.8798 102.962 55.8248 103.253 55.8248C103.651 55.8248 104.005 55.9124 104.314 56.0861C104.625 56.2607 104.871 56.5 105.053 56.806C105.234 57.112 105.331 57.4647 105.342 57.8675C105.342 57.8977 105.341 57.9234 105.339 57.9414C105.338 57.9614 105.334 57.9867 105.33 58.0134H101.711C101.711 58.3287 101.782 58.6064 101.924 58.8477C102.065 59.088 102.259 59.2773 102.506 59.414C102.753 59.5526 103.036 59.6202 103.356 59.6202C103.659 59.6202 103.933 59.5565 104.175 59.429C104.417 59.3016 104.619 59.1211 104.781 58.8818L105.205 59.1089C105.013 59.4217 104.754 59.664 104.425 59.8357C104.096 60.0094 103.732 60.0955 103.331 60.0955ZM101.742 57.5824H104.768C104.734 57.3334 104.647 57.1101 104.505 56.9199C104.364 56.7258 104.186 56.5754 103.969 56.465C103.753 56.3551 103.517 56.2996 103.261 56.2996C102.996 56.2996 102.756 56.3551 102.538 56.4631C102.322 56.5715 102.143 56.7214 102.004 56.9135C101.863 57.1067 101.776 57.3299 101.742 57.5824Z" fill="#2B2F3A"/>
  <path d="M106.672 59.9694V55.9517H107.244V56.5004C107.354 56.3117 107.524 56.1521 107.754 56.0232C107.985 55.8904 108.266 55.8257 108.598 55.8257C108.91 55.8257 109.178 55.8904 109.402 56.0193C109.627 56.1463 109.799 56.3331 109.921 56.5778C110.041 56.822 110.101 57.1163 110.101 57.4612V59.9689H109.527V57.5711C109.527 57.1566 109.432 56.8385 109.237 56.6191C109.044 56.4017 108.77 56.2922 108.417 56.2922C108.17 56.2922 107.961 56.3399 107.786 56.4406C107.613 56.5374 107.479 56.6668 107.384 56.8273C107.29 56.9893 107.243 57.1644 107.243 57.3517V59.9689H106.672V59.9694Z" fill="#2B2F3A"/>
  <path d="M112.673 60.0956C112.372 60.0956 112.138 59.9939 111.973 59.7916C111.806 59.5892 111.724 59.3022 111.724 58.9344V56.3814H111.315V55.9514H111.724V54.4468H112.296V55.9514H113.296V56.3819H112.296V58.9042C112.296 59.1261 112.339 59.2954 112.425 59.4131C112.512 59.5298 112.635 59.5897 112.794 59.5897C112.948 59.5897 113.085 59.5459 113.202 59.4603L113.347 59.9156C113.259 59.9691 113.155 60.0134 113.034 60.047C112.912 60.0786 112.793 60.0956 112.673 60.0956Z" fill="#2B2F3A"/>
  <path d="M118.29 60.0957C117.955 60.0957 117.659 60.0461 117.406 59.944C117.152 59.8442 116.937 59.7226 116.761 59.5801C116.584 59.4376 116.443 59.297 116.338 59.1613C116.232 59.0255 116.158 58.9239 116.116 58.8562L116.457 58.4174C116.503 58.4904 116.575 58.5877 116.67 58.7137C116.766 58.8368 116.888 58.9618 117.039 59.0888C117.186 59.2162 117.366 59.3232 117.576 59.4108C117.785 59.4993 118.028 59.5417 118.3 59.5417C118.564 59.5417 118.802 59.4955 119.018 59.4011C119.234 59.3067 119.407 59.1661 119.538 58.9817C119.669 58.7964 119.734 58.5639 119.734 58.29C119.734 58.0599 119.689 57.8643 119.598 57.7033C119.508 57.5423 119.384 57.4056 119.224 57.2942C119.064 57.1804 118.881 57.0806 118.676 56.9936C118.471 56.9045 118.256 56.8204 118.03 56.7377C117.873 56.6759 117.709 56.6049 117.538 56.5222C117.365 56.4414 117.206 56.3368 117.056 56.2118C116.907 56.0868 116.788 55.9379 116.694 55.7589C116.601 55.5823 116.555 55.3659 116.555 55.1158C116.555 54.8813 116.6 54.6576 116.687 54.4474C116.778 54.2397 116.901 54.0544 117.061 53.8928C117.22 53.7309 117.412 53.6058 117.635 53.5129C117.856 53.4224 118.102 53.3762 118.372 53.3762C118.631 53.3762 118.869 53.421 119.088 53.5037C119.303 53.5908 119.494 53.6983 119.658 53.8267C119.821 53.9561 119.948 54.0894 120.037 54.228L119.731 54.6401C119.658 54.5194 119.555 54.4056 119.424 54.2952C119.292 54.1838 119.141 54.0957 118.964 54.0281C118.787 53.9585 118.59 53.9215 118.376 53.9215C118.11 53.9215 117.883 53.9794 117.695 54.0952C117.508 54.21 117.366 54.3584 117.27 54.5398C117.172 54.7228 117.125 54.9134 117.125 55.1158C117.125 55.2992 117.163 55.4549 117.238 55.5823C117.315 55.7108 117.415 55.8168 117.54 55.9053C117.665 55.9939 117.804 56.0693 117.954 56.1325C118.106 56.1943 118.257 56.2541 118.408 56.3081C118.662 56.403 118.905 56.5027 119.141 56.6083C119.374 56.7148 119.583 56.8394 119.766 56.9853C119.949 57.1303 120.095 57.3073 120.202 57.5155C120.309 57.7218 120.364 57.9753 120.364 58.2705C120.364 58.6578 120.272 58.9876 120.089 59.2605C119.906 59.5319 119.658 59.7377 119.346 59.8812C119.034 60.0247 118.682 60.0957 118.29 60.0957Z" fill="#2B2F3A"/>
  <path d="M123.744 60.096C123.325 60.096 122.948 60.0055 122.611 59.8245C122.275 59.6436 122.009 59.3926 121.812 59.0715C121.616 58.7494 121.518 58.3778 121.518 57.9599C121.518 57.5401 121.616 57.1665 121.812 56.8488C122.008 56.5273 122.275 56.2763 122.611 56.0958C122.948 55.9163 123.325 55.8248 123.744 55.8248C124.162 55.8248 124.54 55.9163 124.876 56.0958C125.212 56.2763 125.478 56.5273 125.675 56.8488C125.871 57.1665 125.969 57.5401 125.969 57.9599C125.969 58.3778 125.871 58.7494 125.675 59.0715C125.479 59.3926 125.213 59.6436 124.876 59.8245C124.54 60.0055 124.162 60.096 123.744 60.096ZM123.744 59.5862C124.058 59.5862 124.338 59.5166 124.583 59.378C124.83 59.2393 125.022 59.0477 125.165 58.802C125.305 58.5588 125.377 58.2776 125.377 57.9604C125.377 57.6452 125.306 57.3635 125.165 57.1203C125.022 56.8741 124.83 56.6815 124.583 56.5443C124.338 56.4057 124.058 56.3361 123.744 56.3361C123.429 56.3361 123.149 56.4057 122.904 56.5443C122.658 56.681 122.464 56.8741 122.322 57.1203C122.182 57.3635 122.111 57.6427 122.111 57.9565C122.111 58.2727 122.182 58.5558 122.322 58.8C122.464 59.0467 122.658 59.2388 122.904 59.378C123.15 59.5166 123.429 59.5862 123.744 59.5862Z" fill="#2B2F3A"/>
  <path d="M127.336 59.9694V53.2183H127.909V59.9694H127.336Z" fill="#2B2F3A"/>
  <path d="M131.225 60.0958C130.617 60.0958 130.18 59.9572 129.918 59.6838C129.656 59.409 129.527 58.9497 129.527 58.3066V55.9517H130.098V58.2054C130.098 58.7119 130.185 59.0738 130.357 59.2898C130.53 59.5053 130.819 59.6142 131.225 59.6142C131.633 59.6142 131.922 59.5053 132.094 59.2898C132.266 59.0743 132.352 58.7119 132.352 58.2054V55.9517H132.924V58.3071C132.924 58.9502 132.793 59.4094 132.533 59.6843C132.274 59.9572 131.838 60.0958 131.225 60.0958Z" fill="#2B2F3A"/>
  <path d="M135.501 60.0956C135.202 60.0956 134.968 59.9939 134.802 59.7916C134.636 59.5892 134.553 59.3022 134.553 58.9344V56.3814H134.145V55.9514H134.553V54.4468H135.127V55.9514H136.128V56.3819H135.127V58.9042C135.127 59.1261 135.168 59.2954 135.256 59.4131C135.342 59.5298 135.465 59.5897 135.625 59.5897C135.78 59.5897 135.915 59.5459 136.032 59.4603L136.178 59.9156C136.089 59.9691 135.984 60.0134 135.865 60.047C135.743 60.0786 135.622 60.0956 135.501 60.0956Z" fill="#2B2F3A"/>
  <path d="M137.713 55.1459C137.646 55.1459 137.583 55.1289 137.527 55.0963C137.47 55.0612 137.425 55.0155 137.391 54.9576C137.357 54.8997 137.34 54.838 137.34 54.7703C137.34 54.7008 137.357 54.639 137.391 54.5835C137.425 54.5261 137.47 54.4823 137.527 54.4468C137.583 54.4142 137.646 54.3967 137.713 54.3967C137.784 54.3967 137.848 54.4138 137.904 54.4468C137.961 54.4823 138.004 54.5261 138.038 54.5816C138.073 54.6351 138.09 54.6988 138.09 54.7664C138.09 54.836 138.073 54.8992 138.038 54.9576C138.004 55.0155 137.961 55.0612 137.904 55.0963C137.848 55.1284 137.784 55.1459 137.713 55.1459ZM137.427 59.9692V55.9515H137.999V59.9692H137.427Z" fill="#2B2F3A"/>
  <path d="M141.614 60.096C141.196 60.096 140.818 60.0055 140.482 59.8245C140.146 59.6436 139.88 59.3926 139.683 59.0715C139.488 58.7494 139.389 58.3778 139.389 57.9599C139.389 57.5401 139.488 57.1665 139.683 56.8488C139.88 56.5273 140.146 56.2763 140.482 56.0958C140.818 55.9163 141.196 55.8248 141.614 55.8248C142.033 55.8248 142.41 55.9163 142.747 56.0958C143.083 56.2763 143.349 56.5273 143.546 56.8488C143.742 57.1665 143.839 57.5401 143.839 57.9599C143.839 58.3778 143.742 58.7494 143.546 59.0715C143.349 59.3926 143.083 59.6436 142.747 59.8245C142.41 60.006 142.033 60.096 141.614 60.096ZM141.614 59.5862C141.928 59.5862 142.208 59.5166 142.454 59.378C142.7 59.2393 142.893 59.0477 143.036 58.802C143.176 58.5588 143.247 58.2776 143.247 57.9604C143.247 57.6452 143.176 57.3635 143.036 57.1203C142.893 56.8741 142.7 56.6815 142.454 56.5443C142.208 56.4057 141.928 56.3361 141.614 56.3361C141.3 56.3361 141.021 56.4057 140.774 56.5443C140.528 56.681 140.334 56.8741 140.193 57.1203C140.053 57.3635 139.982 57.6427 139.982 57.9565C139.982 58.2727 140.053 58.5558 140.193 58.8C140.334 59.0467 140.528 59.2388 140.774 59.378C141.021 59.5166 141.3 59.5862 141.614 59.5862Z" fill="#2B2F3A"/>
  <path d="M145.205 59.9694V55.9517H145.779V56.5004C145.889 56.3117 146.058 56.1521 146.289 56.0232C146.519 55.8904 146.8 55.8257 147.132 55.8257C147.444 55.8257 147.711 55.8904 147.937 56.0193C148.162 56.1463 148.335 56.3331 148.456 56.5778C148.576 56.822 148.636 57.1163 148.636 57.4612V59.9689H148.063V57.5711C148.063 57.1566 147.966 56.8385 147.772 56.6191C147.579 56.4017 147.305 56.2922 146.951 56.2922C146.705 56.2922 146.496 56.3399 146.322 56.4406C146.148 56.5374 146.013 56.6668 145.919 56.8273C145.825 56.9893 145.779 57.1644 145.779 57.3517V59.9689H145.205V59.9694Z" fill="#2B2F3A"/>
  <path d="M151.258 60.096C150.925 60.096 150.633 60.0152 150.379 59.8557C150.125 59.6942 149.927 59.4641 149.786 59.1698L150.092 58.839C150.218 59.0963 150.381 59.2953 150.582 59.4373C150.784 59.5799 151.009 59.6509 151.253 59.6509C151.418 59.6509 151.57 59.6188 151.707 59.5512C151.844 59.4816 151.954 59.3848 152.037 59.2578C152.12 59.1309 152.161 58.98 152.161 58.803C152.161 58.6454 152.123 58.5189 152.044 58.4279C151.968 58.3355 151.855 58.2557 151.707 58.191C151.559 58.1234 151.375 58.048 151.156 57.9633C150.985 57.8957 150.82 57.8189 150.661 57.7313C150.502 57.6467 150.369 57.5357 150.267 57.4044C150.163 57.2721 150.112 57.1042 150.112 56.8999C150.112 56.6937 150.166 56.5093 150.277 56.3478C150.387 56.1873 150.539 56.0598 150.733 55.9679C150.925 55.8759 151.145 55.8282 151.391 55.8282C151.616 55.8282 151.827 55.8779 152.025 55.9737C152.222 56.071 152.4 56.2087 152.557 56.3862L152.294 56.7209C152.054 56.4037 151.754 56.2456 151.395 56.2456C151.176 56.2456 150.997 56.3035 150.859 56.4169C150.722 56.5326 150.654 56.683 150.654 56.8693C150.654 57.0031 150.698 57.1145 150.783 57.2035C150.869 57.2925 150.984 57.3674 151.123 57.4311C151.263 57.4949 151.414 57.5581 151.575 57.6194C151.811 57.7089 152.017 57.797 152.192 57.8865C152.364 57.976 152.5 58.0879 152.597 58.2265C152.694 58.3632 152.742 58.55 152.742 58.785C152.742 59.055 152.679 59.2875 152.554 59.4826C152.428 59.6806 152.253 59.8314 152.029 59.9369C151.806 60.043 151.55 60.096 151.258 60.096Z" fill="#2B2F3A"/>
  <path d="M78.8739 2.61267L74.3845 13.5778H73.1057L74.5749 9.98626L71.5684 2.61267H72.9424L75.2824 8.65303L77.5951 2.61267H78.8739Z" fill="black"/>
  <path d="M64.4963 3.9997C64.7503 3.55529 65.1221 3.1925 65.6119 2.91134C66.1016 2.63019 66.6594 2.48961 67.2852 2.48961C67.9564 2.48961 68.5595 2.64832 69.0946 2.96576C69.6297 3.2832 70.0514 3.73214 70.3598 4.3126C70.6682 4.88398 70.8224 5.5506 70.8224 6.31245C70.8224 7.06522 70.6682 7.73637 70.3598 8.3259C70.0514 8.91542 69.6252 9.37344 69.081 9.69994C68.5459 10.0265 67.9473 10.1897 67.2852 10.1897C66.6413 10.1897 66.0744 10.0491 65.5847 9.76797C65.104 9.48681 64.7412 9.12856 64.4963 8.69322V10.0673H63.2583V0H64.4963V3.9997ZM69.5571 6.31245C69.5571 5.75013 69.4438 5.26037 69.217 4.84317C68.9903 4.42597 68.6819 4.10853 68.2919 3.89086C67.911 3.67319 67.4893 3.56435 67.0267 3.56435C66.5732 3.56435 66.1515 3.67772 65.7615 3.90447C65.3806 4.12214 65.0722 4.44411 64.8364 4.87038C64.6097 5.28758 64.4963 5.7728 64.4963 6.32605C64.4963 6.88837 64.6097 7.38266 64.8364 7.80893C65.0722 8.22613 65.3806 8.5481 65.7615 8.77484C66.1515 8.99251 66.5732 9.10135 67.0267 9.10135C67.4893 9.10135 67.911 8.99251 68.2919 8.77484C68.6819 8.5481 68.9903 8.22613 69.217 7.80893C69.4438 7.38266 69.5571 6.88383 69.5571 6.31245Z" fill="black"/>
  <path d="M49.9751 6.31245C49.9751 5.5506 50.1293 4.88398 50.4376 4.3126C50.746 3.73214 51.1678 3.2832 51.7029 2.96576C52.247 2.64832 52.8547 2.48961 53.5259 2.48961C54.1063 2.48961 54.6459 2.62565 55.1448 2.89774C55.6436 3.16076 56.0245 3.50994 56.2875 3.94528V0H57.5392V10.0673H56.2875V8.66601C56.0427 9.11042 55.6799 9.47774 55.1992 9.76797C54.7185 10.0491 54.1562 10.1897 53.5122 10.1897C52.8502 10.1897 52.247 10.0265 51.7029 9.69994C51.1678 9.37344 50.746 8.91542 50.4376 8.3259C50.1293 7.73637 49.9751 7.06522 49.9751 6.31245ZM56.2875 6.32605C56.2875 5.76373 56.1742 5.27398 55.9474 4.85677C55.7207 4.43957 55.4123 4.12214 55.0223 3.90447C54.6414 3.67772 54.2197 3.56435 53.7571 3.56435C53.2946 3.56435 52.8728 3.67319 52.4919 3.89086C52.111 4.10853 51.8072 4.42597 51.5804 4.84317C51.3537 5.26037 51.2403 5.75013 51.2403 6.31245C51.2403 6.88383 51.3537 7.38266 51.5804 7.80893C51.8072 8.22613 52.111 8.5481 52.4919 8.77484C52.8728 8.99251 53.2946 9.10135 53.7571 9.10135C54.2197 9.10135 54.6414 8.99251 55.0223 8.77484C55.4123 8.5481 55.7207 8.22613 55.9474 7.80893C56.1742 7.38266 56.2875 6.88837 56.2875 6.32605Z" fill="black"/>
  <path d="M48.8038 6.05349C48.8038 6.2893 48.7902 6.53871 48.763 6.80173H42.8043C42.8496 7.53637 43.099 8.11229 43.5525 8.52949C44.0151 8.93763 44.5728 9.14169 45.2259 9.14169C45.761 9.14169 46.2054 9.01925 46.5591 8.77437C46.9219 8.52042 47.1758 8.18485 47.3209 7.76765H48.6542C48.4546 8.48415 48.0556 9.06914 47.457 9.52262C46.8584 9.96703 46.1147 10.1892 45.2259 10.1892C44.5184 10.1892 43.8836 10.0305 43.3212 9.71308C42.768 9.39564 42.3327 8.9467 42.0152 8.36624C41.6978 7.77672 41.5391 7.0965 41.5391 6.32558C41.5391 5.55466 41.6932 4.87898 42.0016 4.29852C42.31 3.71807 42.7408 3.27366 43.294 2.96529C43.8563 2.64785 44.5003 2.48914 45.2259 2.48914C45.9333 2.48914 46.5591 2.64332 47.1033 2.95169C47.6474 3.26005 48.0646 3.68632 48.3549 4.2305C48.6542 4.76561 48.8038 5.37327 48.8038 6.05349ZM47.525 5.79501C47.525 5.32339 47.4207 4.91979 47.2121 4.58422C47.0035 4.23957 46.7178 3.98109 46.355 3.80876C46.0013 3.62737 45.6068 3.53668 45.1714 3.53668C44.5456 3.53668 44.0105 3.73621 43.5661 4.13527C43.1308 4.53433 42.8814 5.08758 42.8179 5.79501H47.525Z" fill="black"/>
  <path d="M38.1648 3.82303C38.3824 3.39676 38.6908 3.06572 39.0899 2.82991C39.498 2.5941 39.9923 2.4762 40.5727 2.4762V3.75501H40.2462C38.8586 3.75501 38.1648 4.50779 38.1648 6.01334V10.0675H36.9268V2.61224H38.1648V3.82303Z" fill="black"/>
  <path d="M35.2926 6.05349C35.2926 6.2893 35.279 6.53871 35.2518 6.80173H29.293C29.3384 7.53637 29.5878 8.11229 30.0413 8.52949C30.5038 8.93763 31.0616 9.14169 31.7146 9.14169C32.2497 9.14169 32.6941 9.01925 33.0479 8.77437C33.4106 8.52042 33.6646 8.18485 33.8097 7.76765H35.1429C34.9434 8.48415 34.5443 9.06914 33.9457 9.52262C33.3472 9.96703 32.6034 10.1892 31.7146 10.1892C31.0072 10.1892 30.3723 10.0305 29.81 9.71308C29.2568 9.39564 28.8214 8.9467 28.504 8.36624C28.1866 7.77672 28.0278 7.0965 28.0278 6.32558C28.0278 5.55466 28.182 4.87898 28.4904 4.29852C28.7987 3.71807 29.2296 3.27366 29.7828 2.96529C30.3451 2.64785 30.9891 2.48914 31.7146 2.48914C32.4221 2.48914 33.0479 2.64332 33.592 2.95169C34.1362 3.26005 34.5534 3.68632 34.8436 4.2305C35.1429 4.76561 35.2926 5.37327 35.2926 6.05349ZM34.0138 5.79501C34.0138 5.32339 33.9095 4.91979 33.7009 4.58422C33.4923 4.23957 33.2066 3.98109 32.8438 3.80876C32.4901 3.62737 32.0956 3.53668 31.6602 3.53668C31.0344 3.53668 30.4993 3.73621 30.0549 4.13527C29.6195 4.53433 29.3701 5.08758 29.3066 5.79501H34.0138Z" fill="black"/>
  <path d="M27.2618 2.61267L24.9354 10.0679H23.6566L21.8608 4.14997L20.0651 10.0679H18.7862L16.4463 2.61267H17.7115L19.4257 8.8707L21.2759 2.61267H22.5411L24.3505 8.8843L26.0374 2.61267H27.2618Z" fill="black"/>
  <path d="M11.88 10.1892C11.1817 10.1892 10.5468 10.0305 9.9754 9.71308C9.41309 9.39564 8.96868 8.9467 8.64217 8.36624C8.32473 7.77672 8.16602 7.0965 8.16602 6.32558C8.16602 5.56373 8.32927 4.89258 8.65577 4.31213C8.99135 3.7226 9.44483 3.27366 10.0162 2.96529C10.5876 2.64785 11.227 2.48914 11.9344 2.48914C12.6419 2.48914 13.2813 2.64785 13.8527 2.96529C14.424 3.27366 14.873 3.71807 15.1995 4.29852C15.5351 4.87898 15.7029 5.55466 15.7029 6.32558C15.7029 7.0965 15.5305 7.77672 15.1859 8.36624C14.8503 8.9467 14.3923 9.39564 13.8118 9.71308C13.2314 10.0305 12.5874 10.1892 11.88 10.1892ZM11.88 9.10088C12.3244 9.10088 12.7416 8.99658 13.1316 8.78798C13.5216 8.57938 13.8345 8.26648 14.0703 7.84927C14.3152 7.43207 14.4376 6.92417 14.4376 6.32558C14.4376 5.72699 14.3197 5.21909 14.0839 4.80189C13.8481 4.38468 13.5398 4.07632 13.1588 3.87679C12.7779 3.66818 12.3652 3.56388 11.9208 3.56388C11.4674 3.56388 11.0502 3.66818 10.6692 3.87679C10.2974 4.07632 9.99808 4.38468 9.77134 4.80189C9.5446 5.21909 9.43123 5.72699 9.43123 6.32558C9.43123 6.93324 9.54006 7.44568 9.75773 7.86288C9.98447 8.28008 10.2838 8.59298 10.6556 8.80158C11.0275 9.00111 11.4356 9.10088 11.88 9.10088Z" fill="black"/>
  <path d="M7.08966 3.35977C7.08966 4.14883 6.81757 4.80638 6.27339 5.33241C5.73828 5.84938 4.91748 6.10786 3.81099 6.10786H1.988V10.0667H0.75V0.584473H3.81099C4.88121 0.584473 5.69294 0.842956 6.24618 1.35992C6.8085 1.87689 7.08966 2.54351 7.08966 3.35977ZM3.81099 5.08753C4.50028 5.08753 5.00818 4.93788 5.33469 4.63859C5.66119 4.33929 5.82445 3.91302 5.82445 3.35977C5.82445 2.18979 5.15329 1.6048 3.81099 1.6048H1.988V5.08753H3.81099Z" fill="black"/>
  <defs>
  <linearGradient id="paint0_linear_1_437" x1="59.7981" y1="34.4014" x2="107.088" y2="34.3478" gradientUnits="userSpaceOnUse">
  <stop stop-color="#395AE8"/>
  <stop offset="1" stop-color="#4E2CD1"/>
  </linearGradient>
  </defs>
  </svg>
