<svg xmlns="http://www.w3.org/2000/svg" width="41" height="39" viewBox="0 0 41 39" fill="none">
  <path fill-rule="evenodd" clip-rule="evenodd"
    d="M20.5127 39C31.8299 39 41 30.2719 41 19.5C41 8.72806 31.8299 0 20.5127 0C9.19539 0 0 8.72806 0 19.5C0 30.2719 9.19539 39 20.5127 39Z"
    fill="#373BD3" />
  <path fill-rule="evenodd" clip-rule="evenodd"
    d="M13.7843 18.307L17.3599 21.6042L27.2632 12.6198C27.8277 12.0665 28.7452 12.0443 29.3334 12.5533L29.4276 12.6417C30.0155 13.1507 30.0627 14.0138 29.498 14.5448L18.4185 26.3175C17.995 26.7159 17.6422 26.8487 17.0306 26.8043C16.4189 26.76 16.0896 26.5167 15.7837 26.1405L11.4086 19.9888C10.9146 19.3914 11.0321 18.5283 11.6909 18.0636C12.3728 17.5768 13.2903 17.7095 13.7843 18.307Z"
    fill="white" />
</svg>
