<svg width="17" height="17" viewBox="0 0 17 17" fill="none" xmlns="http://www.w3.org/2000/svg">
<path fill-rule="evenodd" clip-rule="evenodd" d="M4.11287 5.48392H6.25242C6.58502 5.48392 6.85483 5.75373 6.85483 6.08633V16.4518C6.85483 16.7547 7.10023 17.0001 7.40322 17.0001H9.59678C9.89977 17.0001 10.1452 16.7547 10.1452 16.4518V6.08633C10.1452 5.75373 10.415 5.48392 10.7476 5.48392H12.8871V7.1291C12.8871 7.35531 13.0259 7.55821 13.2367 7.6402C13.4476 7.72218 13.687 7.66625 13.8397 7.49953L16.8558 4.20919C17.0481 3.9997 17.0481 3.67779 16.8558 3.46831L13.8397 0.177959C13.687 0.0112481 13.4476 -0.0446878 13.2367 0.0372967C13.0259 0.119281 12.8871 0.322186 12.8871 0.548398V2.19357H10.7476C9.91019 2.19357 9.13476 2.4579 8.5 2.90758C7.86524 2.4579 7.08981 2.19357 6.25242 2.19357H4.11287V0.548398C4.11287 0.322186 3.97413 0.119281 3.76327 0.0372967C3.55241 -0.0446878 3.31304 0.0112481 3.16031 0.177959L0.144158 3.46831C-0.0480528 3.67779 -0.0480528 3.9997 0.144158 4.20919L3.16031 7.49953C3.31304 7.66625 3.55241 7.72218 3.76327 7.6402C3.97413 7.55821 4.11287 7.35531 4.11287 7.1291V5.48392Z" fill="#7B8085"/>
</svg>
