<svg xmlns="http://www.w3.org/2000/svg" width="90" height="90" viewBox="0 0 90 90" fill="none">
  <path fill-rule="evenodd" clip-rule="evenodd" d="M45.0278 90C69.8706 90 90 69.8583 90 45C90 20.1417 69.8706 0 45.0278 0C20.185 0 0 20.1417 0 45C0 69.8583 20.185 90 45.0278 90Z" fill="#373BD3"/>
  <path fill-rule="evenodd" clip-rule="evenodd" d="M30.2575 42.2468L38.1063 49.856L59.8454 29.1226C61.0845 27.8457 63.0985 27.7946 64.3896 28.9692L64.5964 29.1732C65.887 30.3478 65.9906 32.3396 64.7511 33.5649L40.4302 60.7327C39.5006 61.6521 38.7261 61.9585 37.3834 61.8562C36.0407 61.7539 35.3178 61.1924 34.6465 60.3241L25.0425 46.1281C23.9582 44.7495 24.216 42.7577 25.6623 41.6853C27.1592 40.5619 29.1732 40.8682 30.2575 42.2468Z" fill="white"/>
</svg>
